<?xml version="1.0" encoding="UTF-8"?>
<svg id="Camada_2" data-name="Camada 2" xmlns="http://www.w3.org/2000/svg" viewBox="0 0 1249.5 360.36">
  <defs>
    <style>
      .cls-1 {
        fill: #2600ff;
        stroke-width: 0px;
      }
    </style>
  </defs>
  <g id="Camada_1-2" data-name="Camada 1">
    <g>
      <path class="cls-1" d="M491.57,88.7v121.52l19.83-18.48c8.07-7.52,18.68-11.7,29.71-11.7h0c8.41,0,15.23,6.82,15.23,15.23h0c0,8.41-6.82,15.23-15.23,15.23h-19.1c-16.81,0-30.45,13.63-30.45,30.45h0s62.93,0,62.93,0c18.89,0,34.21-15.32,34.21-34.21v-11.47c0-9.35-4.93-18-12.97-22.76l-4.71-2.79c-3.7-2.19-3.69-7.56.02-9.74l4.6-2.7c8.09-4.75,13.06-13.43,13.06-22.81h0c0-25.27-20.48-45.75-45.75-45.75h-51.39ZM541.11,149.6h-17.16v-30.45h17.16c8.41,0,15.23,6.82,15.23,15.23h0c0,8.41-6.82,15.23-15.23,15.23Z"/>
      <g>
        <path class="cls-1" d="M605.14,119.14v-16.37c0-7.77,6.3-14.07,14.07-14.07h18.31l-32.38,30.45Z"/>
        <path class="cls-1" d="M637.31,119.42l.16,91.66c.03,16.49-13.33,29.87-29.81,29.87h-2.52v-91.34l32.17-30.18Z"/>
      </g>
      <g>
        <path class="cls-1" d="M991.24,119.14v-16.37c0-7.77,6.3-14.07,14.07-14.07h18.31l-32.38,30.45Z"/>
        <path class="cls-1" d="M1023.41,119.42l.16,91.66c.03,16.49-13.33,29.87-29.81,29.87h-2.52v-91.34l32.17-30.18Z"/>
      </g>
      <path class="cls-1" d="M683.2,134.37h0c0,8.41,6.82,15.23,15.23,15.23h3.86c25.22,0,45.67,20.45,45.67,45.67h0c0,25.22-20.45,45.67-45.67,45.67h-51.47s0,0,0,0c0-16.81,13.63-30.45,30.45-30.45h19.09c8.41,0,15.23-6.82,15.23-15.23h0c0-8.41-6.82-15.23-15.23-15.23h-18.01c-17.28.09-31.36-13.84-31.45-31.12l-.08-16.32c0-24.24,19.65-43.9,43.9-43.9h53.24c0,16.81-13.63,30.45-30.45,30.45h-19.09c-8.41,0-15.23,6.82-15.23,15.23Z"/>
      <path class="cls-1" d="M833.89,240.94h-32.42c-20.3,0-36.75-16.45-36.75-36.75v-78.75c0-20.3,16.45-36.75,36.75-36.75h60.39l-26.45,30.45h-23.13c-8.38,0-15.18,6.79-15.18,15.18v61c0,8.38,6.79,15.18,15.18,15.18h49.58l-27.98,30.45Z"/>
      <path class="cls-1" d="M942.74,240.94v-60.9h-30.52s0,60.32,0,60.32l-33.79.38-.46.2v-123.05c0-16.12,13.07-29.19,29.19-29.19h38.76c16.12,0,29.19,13.07,29.19,29.19l.22,122.85M942.74,149.6v-14.28c0-8.93-7.24-16.17-16.17-16.17h0c-8.95,0-16.19,7.26-16.17,16.21l.09,13.97,32.26.27Z"/>
      <polygon class="cls-1" points="1135.57 88.7 1135.57 119.14 1103.2 119.14 1103.2 210.29 1103.19 211.49 1103.19 240.94 1070.81 240.94 1070.81 211.49 1070.8 210.29 1070.8 119.14 1038.43 119.14 1038.43 88.7 1135.57 88.7"/>
      <polygon class="cls-1" points="1070.8 210.29 1070.81 211.49 1070.81 240.94 1070.8 240.94 1070.8 210.29"/>
      <polygon class="cls-1" points="1104.03 119.14 1103.2 210.29 1103.2 119.14 1104.03 119.14"/>
      <polygon class="cls-1" points="1069.97 119.14 1070.8 119.14 1070.8 210.29 1069.97 119.14"/>
      <polygon class="cls-1" points="1103.2 210.29 1103.2 240.94 1103.19 240.94 1103.19 211.49 1103.2 210.29"/>
      <path class="cls-1" d="M1184.74,133.34v2.06c0,7.84,6.36,14.2,14.2,14.2h50.56v30.45h-50.56c-7.84,0-14.2,6.36-14.2,14.2v2.06c0,7.84,6.36,14.2,14.2,14.2h50.56v30.45h-76.23c-11.55,0-20.91-9.36-20.91-20.91v-110.41c0-11.55,9.36-20.91,20.91-20.91h76.23v30.45h-50.56c-7.84,0-14.2,6.36-14.2,14.2Z"/>
      <path class="cls-1" d="M429.16,100.76c.05-.01.1-.03.15-.04-2.27-13.98-5.44-28.38-9.58-41.94-4.64-15.17-10.45-32.83-21.21-44.91-9.86-11.06-28.07-13.66-42.11-13.11-42.24,1.66-84.51-1.43-126.8-.63l-23.85.48c-12.59,0-24.62.2-36.64-.04-25.01-.49-44.68,9.31-59.94,29.19-5.26,6.85-12.39,12.29-18.8,18.23-2.93,2.72-6.37,4.9-9.28,7.65-16.58,15.64-13.05,33.19-1.42,46.76,17.91,20.89,52.62,21.54,71.97,1.84,2.04-2.08,4.24-4.01,6.32-6.06,5.04-4.99,9.25-12.09,15.3-14.42,6.06-2.34,13.95.25,21.05.36,9.31.14,18.63-.15,27.94.03,1.68.03,3.77,1.01,4.92,2.25,17.69,19.18,34.85,38.86,52.94,57.65,27.22,28.28,55.04,55.97,82.66,83.86,5.02,5.07,8.04,10.7,7.18,18.09-.81,7.03-2.55,13.59-10.07,16.07-7.8,2.57-15.21,1.54-21.1-4.81-13.77-14.86-27.2-30.04-41.28-44.6-13.95-14.43-28.56-28.21-42.79-42.37-3.51-3.49-6.19-3.36-10-.03-10.42,9.09-10.45,10.17-1.05,19.95,25.95,26.96,51.76,54.07,77.53,81.21,6.46,6.8,5.84,20.3-.89,27.07-7.22,7.26-17.61,7.73-25.52.04-10.99-10.68-21.23-22.12-31.92-33.1-16.55-17-33.17-33.93-49.84-50.82-4.41-4.47-5.96-4.52-10.04.52-8.54,10.57-8.89,11.66-.07,21.2,17.35,18.76,35.17,37.09,53.22,55.18,8.3,8.32,10.2,18.03,7.95,28.67-2.63,12.43-19.23,18.25-30.71,10.21-7.34-5.14-13.18-12.46-19.52-18.98-.77-.79-.77-2.73-.55-4.04,3.48-20.7-4.51-36.75-20.16-49.58-8.07-6.62-17.87-7.62-29-7.31,4.64-18.17.85-33.77-12.05-47.13-13.25-13.71-29.06-15.27-45.93-11.01-1.8-6.78-2.63-13.76-5.44-19.81-16.11-34.74-53.16-34.77-76.2-18.58-5.31,3.73-9.93,8.55-14.53,13.2-15.54,15.72-11.8,51.74,3.1,66.6,9.04,9.01,18.4,16.77,32.94,15.61-4.28,18.01-3.43,34.55,9.08,49.11,12.72,14.81,28.19,19.16,47.2,13.79.35,1.79.77,3.31.93,4.85,3.36,32.12,32.75,50.81,63.29,40.35,11.13-3.81,20.38-10.43,28.97-18.23,4.58-4.16,4.66-4.07,10.62-2.58l24.16,18.31c13.01,3.8,24.82,2.14,35.62-3.88,10.74-5.99,18.36-14.81,20.15-28.39,13.7,6.08,27.69,7.07,40.91-.3,13.23-7.37,20.13-19.16,20.21-35.42,2.39,0,4.68.13,6.95-.02,24.56-1.6,48.22-25.43,37.14-54.1-3.23-8.37-3.09-12.81,4.01-19.91,13.53-13.5,24.34-29.73,30.29-47.97,6.94-21.26,4.76-42.27,3.59-64.2ZM39.04,224.42c-10.56-4.64-16.26-12.66-16.55-24.21-.44-17.96,15.76-33.91,34.31-33.97,10.78-.04,19.12,6.09,23.92,17.57,4.06,9.7,2.24,19.19-5.37,26.59-3.39,3.3-7.25,6.12-10.69,9.37-7.57,7.13-16.01,8.88-25.62,4.66ZM100.16,286.92c-11.89,9.12-30.45-.04-32.77-14.98-.39-2.51-.39-5.08-.57-7.62-.72-8.44,3.23-14.75,9-20.28,6.97-6.68,13.72-13.62,20.94-20.02,6.65-5.9,14.29-10.22,23.56-10.13,10.23.1,16.39,6.26,20.44,14.85,4.03,8.56,3.19,17.71-3,24.11-11.75,12.14-24.21,23.81-37.61,34.08ZM188.52,310.68c-5.88,9.96-14.22,18.04-24.55,23.52-3.73,1.98-8.17,2.61-12.29,3.86-10.75-.81-20.53-6.97-24.23-15.89-4.2-10.12-2.01-21.73,6.14-29.65,5.08-4.94,10.39-9.76,16.14-13.88,11.63-8.33,29.63-8.94,39.01,6.59,5.16,8.54,4.5,17.47-.21,25.46ZM402.49,161.07c-4.41,16.03-14.13,31.15-28.68,39.19-1.94,1.07-4.17,2.04-6.31,1.49-1.76-.45-3.1-1.82-4.35-3.13-25.6-26.95-51.21-53.89-76.81-80.84,10.3-.65,20.61-1.29,30.91-1.94,1.49-.09,3.12-.24,4.22-1.25,1.55-1.42,1.41-3.85,1.15-5.94-.7-5.7-1.41-11.4-2.11-17.1-13.18,3.54-27.2,5.56-40.43,2.22-13.23-3.34-25.52-12.95-28.91-26.17-.54-2.11-.94-4.44-2.57-5.87-1.67-1.47-4.12-1.54-6.35-1.53-21.59.08-43.19.16-64.78.24-4.27.02-8.61.04-12.68,1.32-14.67,4.61-20.41,23.08-33.95,30.38-10.58,5.7-25.08,2.68-32.5-6.77-1.16-1.48-2.18-3.16-2.37-5.03-.51-5.18,5.1-8.49,9.41-11.41,15.41-10.43,22.3-30.87,38.66-39.73,10.23-5.54,22.44-5.57,34.07-5.47,54.96.5,109.92,1.01,164.89,1.51,10.01.09,20.31.24,29.53,4.14,13.75,5.82,23.04,19.35,27.37,33.64,4.33,14.29,4.4,29.48,4.43,44.41.07-.02.15-.04.22-.06-.07,1.38.04,2.82.19,4.15,1.79,16.53,2.17,33.5-2.24,49.53Z"/>
    </g>
  </g>
</svg>