<?xml version="1.0" encoding="UTF-8"?>
<svg id="Camada_2" data-name="Camada 2" xmlns="http://www.w3.org/2000/svg" viewBox="0 0 392.42 328.54">
  <defs>
    <style>
      .cls-1 {
        fill: white;
        stroke-width: 0px;
      }
    </style>
  </defs>
  <g id="Camada_1-2" data-name="Camada 1">
    <path class="cls-1" d="M391.26,91.86s.09-.02.14-.04c-2.07-12.74-4.96-25.88-8.74-38.23-4.23-13.83-9.52-29.93-19.34-40.95-8.99-10.09-25.59-12.45-38.39-11.95-38.51,1.51-77.05-1.3-115.6-.58l-21.75.44c-11.47,0-22.44.18-33.4-.04-22.8-.45-40.73,8.49-54.64,26.61-4.8,6.25-11.29,11.2-17.14,16.62-2.68,2.48-5.81,4.47-8.46,6.97-15.12,14.26-11.9,30.26-1.29,42.63,16.33,19.04,47.97,19.64,65.61,1.68,1.86-1.9,3.87-3.66,5.76-5.53,4.6-4.55,8.43-11.02,13.95-13.15,5.53-2.13,12.72.23,19.19.33,8.49.13,16.98-.14,25.47.02,1.53.03,3.44.92,4.48,2.06,16.13,17.49,31.77,35.43,48.26,52.56,24.81,25.78,50.18,51.03,75.36,76.45,4.57,4.62,7.33,9.76,6.55,16.49-.74,6.41-2.33,12.39-9.18,14.65-7.11,2.35-13.87,1.4-19.24-4.39-12.56-13.54-24.8-27.39-37.63-40.67-12.72-13.15-26.04-25.72-39.01-38.62-3.2-3.18-5.64-3.06-9.11-.03-9.5,8.29-9.53,9.28-.96,18.18,23.66,24.58,47.19,49.29,70.68,74.04,5.89,6.2,5.32,18.51-.81,24.68-6.59,6.62-16.06,7.04-23.27.04-10.02-9.74-19.36-20.16-29.1-30.18-15.09-15.5-30.24-30.94-45.44-46.34-4.02-4.07-5.44-4.12-9.16.48-7.79,9.63-8.1,10.63-.06,19.33,15.82,17.1,32.07,33.81,48.52,50.31,7.57,7.59,9.3,16.44,7.24,26.14-2.4,11.33-17.53,16.64-28,9.3-6.69-4.69-12.02-11.36-17.79-17.3-.7-.72-.7-2.49-.5-3.68,3.17-18.87-4.12-33.5-18.38-45.2-7.36-6.03-16.3-6.94-26.44-6.67,4.23-16.57.78-30.79-10.99-42.96-12.08-12.5-26.49-13.92-41.87-10.04-1.64-6.18-2.4-12.54-4.96-18.06-14.69-31.67-48.47-31.7-69.47-16.94-4.84,3.4-9.05,7.79-13.24,12.03-14.17,14.34-10.76,47.17,2.83,60.72,8.24,8.21,16.78,15.29,30.03,14.24-3.9,16.42-3.13,31.5,8.27,44.78,11.6,13.5,25.7,17.47,43.03,12.57.32,1.63.7,3.01.85,4.42,3.06,29.28,29.86,46.32,57.7,36.79,10.15-3.48,18.58-9.51,26.41-16.62,4.17-3.79,4.25-3.71,9.68-2.35l22.03,16.7c11.86,3.46,22.63,1.95,32.48-3.54,9.79-5.46,16.74-13.5,18.37-25.88,12.49,5.54,25.24,6.45,37.3-.27,12.06-6.72,18.36-17.47,18.43-32.3,2.18,0,4.26.12,6.33-.02,22.39-1.46,43.96-23.18,33.86-49.32-2.95-7.63-2.82-11.68,3.66-18.15,12.33-12.31,22.19-27.1,27.62-43.73,6.32-19.38,4.34-38.54,3.27-58.53ZM35.59,204.6c-9.63-4.23-14.82-11.54-15.08-22.07-.4-16.37,14.36-30.91,31.28-30.97,9.82-.04,17.43,5.55,21.81,16.02,3.7,8.84,2.04,17.5-4.9,24.24-3.09,3.01-6.61,5.58-9.75,8.54-6.9,6.5-14.6,8.09-23.36,4.25ZM91.32,261.58c-10.84,8.31-27.76-.04-29.88-13.66-.36-2.29-.35-4.63-.52-6.95-.66-7.7,2.95-13.44,8.21-18.49,6.36-6.09,12.51-12.42,19.09-18.26,6.06-5.38,13.03-9.32,21.48-9.24,9.33.09,14.95,5.7,18.63,13.54,3.68,7.81,2.91,16.14-2.74,21.98-10.71,11.07-22.08,21.71-34.28,31.07ZM171.87,283.25c-5.36,9.08-12.96,16.44-22.38,21.44-3.4,1.8-7.45,2.38-11.21,3.52-9.8-.74-18.71-6.35-22.09-14.49-3.83-9.23-1.83-19.81,5.6-27.03,4.63-4.51,9.47-8.9,14.71-12.66,10.6-7.6,27.01-8.15,35.56,6.01,4.7,7.79,4.11,15.92-.19,23.21ZM366.94,146.84c-4.02,14.61-12.88,28.4-26.14,35.73-1.77.98-3.8,1.86-5.76,1.36-1.6-.41-2.83-1.66-3.97-2.86-23.34-24.57-46.68-49.13-70.03-73.7,9.39-.59,18.79-1.18,28.18-1.77,1.36-.09,2.84-.22,3.85-1.14,1.41-1.29,1.29-3.51,1.05-5.41-.64-5.2-1.28-10.39-1.93-15.59-12.02,3.23-24.79,5.07-36.86,2.03-12.06-3.04-23.27-11.81-26.35-23.86-.49-1.92-.86-4.04-2.35-5.35-1.53-1.34-3.76-1.41-5.79-1.4-19.69.07-39.37.15-59.06.22-3.89.01-7.85.04-11.56,1.21-13.37,4.21-18.61,21.04-30.95,27.69-9.65,5.2-22.86,2.45-29.63-6.18-1.06-1.35-1.99-2.88-2.16-4.58-.46-4.72,4.65-7.74,8.58-10.4,14.05-9.51,20.33-28.14,35.24-36.22,9.33-5.05,20.46-5.08,31.06-4.98l150.32,1.38c9.12.08,18.52.22,26.92,3.78,12.54,5.31,21.01,17.64,24.95,30.67s4.01,26.87,4.04,40.49c.07-.02.13-.04.2-.05-.06,1.26.04,2.57.17,3.78,1.63,15.07,1.98,30.54-2.04,45.16Z"/>
  </g>
</svg>